<svg width="1111" height="198" viewBox="0 0 1111 198" fill="none" xmlns="http://www.w3.org/2000/svg">
<path d="M3.61218 17.7852H186.728" stroke="#1F0024" stroke-width="7.22428" stroke-linecap="round"/>
<path d="M40.7716 99.7637L150.718 99.7637" stroke="#1F0024" stroke-width="7.22428" stroke-linecap="round"/>
<path d="M40.7716 40.3853L150.718 40.3853" stroke="#1F0024" stroke-width="7.22428" stroke-linecap="round"/>
<path d="M68.3538 150.718L123.135 150.718" stroke="#1F0024" stroke-width="7.22428" stroke-linecap="round"/>
<path d="M150.719 17.7852L150.719 98.9999" stroke="#1F0024" stroke-width="7.22428" stroke-linecap="round"/>
<path d="M40.7716 18.5557L40.7716 99.7704" stroke="#1F0024" stroke-width="7.22428" stroke-linecap="round"/>
<path d="M20.4713 20.8525L20.4713 48.4349" stroke="#1F0024" stroke-width="7.22428" stroke-linecap="round"/>
<path d="M54.5642 111.64L54.5642 140.371" stroke="#1F0024" stroke-width="7.22428" stroke-linecap="round"/>
<path d="M68.3538 104.361L68.3538 150.715" stroke="#1F0024" stroke-width="7.22428" stroke-linecap="round"/>
<path d="M123.137 103.977L123.137 150.331" stroke="#1F0024" stroke-width="7.22428" stroke-linecap="round"/>
<path d="M136.926 111.64L136.926 140.371" stroke="#1F0024" stroke-width="7.22428" stroke-linecap="round"/>
<path d="M107.81 151.483L107.81 180.215" stroke="#1F0024" stroke-width="7.22428" stroke-linecap="round"/>
<path d="M83.6801 151.483L83.6801 180.215" stroke="#1F0024" stroke-width="7.22428" stroke-linecap="round"/>
<rect x="66.4388" y="61.457" width="16.8559" height="16.8559" rx="8.42795" fill="#1F0024"/>
<rect x="107.81" y="61.457" width="16.8559" height="16.8559" rx="8.42795" fill="#1F0024"/>
<path d="M222.102 88H216.596C215.237 88 214.557 87.3203 214.557 85.961V19.3869C214.557 18.0276 215.237 17.3479 216.596 17.3479H224.243C225.534 17.3479 226.486 17.9256 227.097 19.0811L249.017 60.6771L270.834 19.0811C271.446 17.9256 272.398 17.3479 273.689 17.3479H281.029C282.389 17.3479 283.068 18.0276 283.068 19.3869V85.961C283.068 87.3203 282.389 88 281.029 88H275.524C274.165 88 273.485 87.3203 273.485 85.961V32.4367L254.522 68.2215C253.978 69.3769 252.993 69.9547 251.566 69.9547H246.162C244.871 69.9547 243.885 69.3769 243.206 68.2215L224.141 32.3347V85.961C224.141 87.3203 223.461 88 222.102 88ZM291.922 88C290.767 88 290.189 87.5582 290.189 86.6746C290.189 86.3348 290.257 85.961 290.393 85.5532C290.529 85.1454 290.665 84.7376 290.801 84.3298L314.657 20.1006C314.997 19.0811 315.371 18.3674 315.779 17.9596C316.187 17.5518 316.968 17.3479 318.124 17.3479H324.445C325.6 17.3479 326.382 17.5518 326.789 17.9596C327.197 18.3674 327.571 19.0811 327.911 20.1006L351.767 84.3298C351.903 84.7376 352.039 85.1454 352.175 85.5532C352.311 85.961 352.379 86.3348 352.379 86.6746C352.379 87.5582 351.801 88 350.646 88H344.835C343.679 88 342.898 87.7961 342.49 87.3883C342.082 86.9805 341.708 86.2668 341.368 85.2473L335.761 69.241H306.501L301.098 85.2473C300.758 86.2668 300.384 86.9805 299.976 87.3883C299.569 87.7961 298.787 88 297.631 88H291.922ZM309.254 61.3908H333.11L321.08 26.7274L309.254 61.3908ZM387.802 89.2234C376.655 89.2234 368.193 86.1649 362.416 80.0478C356.707 73.8628 353.852 64.8231 353.852 52.9288C353.852 41.1705 356.842 32.1308 362.824 25.8099C368.805 19.4889 377.301 16.3284 388.311 16.3284C390.69 16.3284 393.137 16.5323 395.652 16.9401C398.167 17.28 400.478 17.7557 402.585 18.3674C403.4 18.6393 403.944 19.0131 404.216 19.4889C404.488 19.8967 404.624 20.5424 404.624 21.426V25.3001C404.624 26.5915 404.148 27.2372 403.196 27.2372C402.924 27.2372 402.585 27.2032 402.177 27.1352C401.769 27.0673 400.953 26.8973 399.73 26.6255C397.895 26.2177 396.162 25.9118 394.53 25.7079C392.967 25.504 391.302 25.4021 389.535 25.4021C380.971 25.4021 374.718 27.509 370.776 31.723C366.834 35.869 364.863 42.4958 364.863 51.6035V54.0503C364.863 63.022 366.766 69.6148 370.572 73.8288C374.446 78.0428 380.563 80.1498 388.923 80.1498C390.894 80.1498 392.831 80.0138 394.734 79.742C396.705 79.4021 398.812 78.9943 401.055 78.5186C402.075 78.3147 402.754 78.1787 403.094 78.1107C403.502 78.0428 403.842 78.0088 404.114 78.0088C405.133 78.0088 405.643 78.6545 405.643 79.9459V83.7181C405.643 84.6016 405.507 85.2813 405.235 85.7571C404.963 86.1649 404.42 86.5047 403.604 86.7766C398.71 88.4078 393.443 89.2234 387.802 89.2234ZM423.12 88H416.799C415.439 88 414.76 87.3203 414.76 85.961V19.3869C414.76 18.0276 415.439 17.3479 416.799 17.3479H423.12C424.479 17.3479 425.159 18.0276 425.159 19.3869V47.7293H460.434V19.3869C460.434 18.0276 461.113 17.3479 462.473 17.3479H468.794C470.153 17.3479 470.833 18.0276 470.833 19.3869V85.961C470.833 87.3203 470.153 88 468.794 88H462.473C461.113 88 460.434 87.3203 460.434 85.961V56.1913H425.159V85.961C425.159 87.3203 424.479 88 423.12 88ZM493.647 88H487.326C485.966 88 485.287 87.3203 485.287 85.961V19.3869C485.287 18.0276 485.966 17.3479 487.326 17.3479H493.647C495.006 17.3479 495.686 18.0276 495.686 19.3869V85.961C495.686 87.3203 495.006 88 493.647 88ZM517.74 88H512.234C510.875 88 510.195 87.3203 510.195 85.961V19.3869C510.195 18.0276 510.875 17.3479 512.234 17.3479H518.759C520.662 17.3479 521.954 17.9596 522.633 19.183L556.277 73.8288V19.3869C556.277 18.0276 556.957 17.3479 558.316 17.3479H563.822C565.181 17.3479 565.861 18.0276 565.861 19.3869V85.961C565.861 87.3203 565.181 88 563.822 88H557.195C555.36 88 554.068 87.3883 553.321 86.1649L519.779 31.825V85.961C519.779 87.3203 519.099 88 517.74 88ZM621.818 88H581.955C580.596 88 579.916 87.3203 579.916 85.961V19.3869C579.916 18.0276 580.596 17.3479 581.955 17.3479H621.818C623.178 17.3479 623.857 18.0276 623.857 19.3869V23.6689C623.857 25.0282 623.178 25.7079 621.818 25.7079H590.315V47.4235H616.415C617.774 47.4235 618.454 48.1032 618.454 49.4625V53.7444C618.454 55.1038 617.774 55.7835 616.415 55.7835H590.315V79.64H621.818C623.178 79.64 623.857 80.3197 623.857 81.679V85.961C623.857 87.3203 623.178 88 621.818 88ZM699.328 88H659.669C658.31 88 657.63 87.3203 657.63 85.961V19.3869C657.63 18.0276 658.31 17.3479 659.669 17.3479H665.99C667.35 17.3479 668.029 18.0276 668.029 19.3869V79.4361H699.328C700.688 79.4361 701.367 80.1158 701.367 81.4751V85.961C701.367 87.3203 700.688 88 699.328 88ZM749.938 88H710.075C708.716 88 708.036 87.3203 708.036 85.961V19.3869C708.036 18.0276 708.716 17.3479 710.075 17.3479H749.938C751.297 17.3479 751.977 18.0276 751.977 19.3869V23.6689C751.977 25.0282 751.297 25.7079 749.938 25.7079H718.435V47.4235H744.535C745.894 47.4235 746.574 48.1032 746.574 49.4625V53.7444C746.574 55.1038 745.894 55.7835 744.535 55.7835H718.435V79.64H749.938C751.297 79.64 751.977 80.3197 751.977 81.679V85.961C751.977 87.3203 751.297 88 749.938 88ZM756.927 88C755.771 88 755.193 87.5582 755.193 86.6746C755.193 86.3348 755.261 85.961 755.397 85.5532C755.533 85.1454 755.669 84.7376 755.805 84.3298L779.662 20.1006C780.001 19.0811 780.375 18.3674 780.783 17.9596C781.191 17.5518 781.972 17.3479 783.128 17.3479H789.449C790.604 17.3479 791.386 17.5518 791.794 17.9596C792.202 18.3674 792.575 19.0811 792.915 20.1006L816.772 84.3298C816.908 84.7376 817.044 85.1454 817.18 85.5532C817.316 85.961 817.383 86.3348 817.383 86.6746C817.383 87.5582 816.806 88 815.65 88H809.839C808.684 88 807.902 87.7961 807.494 87.3883C807.086 86.9805 806.713 86.2668 806.373 85.2473L800.765 69.241H771.506L766.102 85.2473C765.762 86.2668 765.388 86.9805 764.981 87.3883C764.573 87.7961 763.791 88 762.636 88H756.927ZM774.258 61.3908H798.115L786.085 26.7274L774.258 61.3908ZM826.518 88C825.159 88 824.479 87.3203 824.479 85.961V19.3869C824.479 18.0276 825.159 17.3479 826.518 17.3479H850.273C854.759 17.3479 858.667 18.1975 861.997 19.8967C865.396 21.5279 868.047 23.9068 869.95 27.0333C871.853 30.0918 872.804 33.83 872.804 38.2479C872.804 43.2095 871.445 47.3555 868.726 50.6859C866.076 54.0163 862.575 56.4292 858.225 57.9244L875.047 84.7376C875.591 85.5532 875.863 86.2328 875.863 86.7766C875.863 87.5922 875.353 88 874.334 88H868.624C867.537 88 866.721 87.898 866.177 87.6941C865.634 87.4902 865.192 87.0824 864.852 86.4707L848.336 59.5557H834.573V85.961C834.573 87.3203 833.893 88 832.534 88H826.518ZM834.573 51.2976H848.948C853.23 51.2976 856.526 50.2441 858.837 48.1371C861.148 45.9622 862.303 42.6997 862.303 38.3498C862.303 29.8539 857.987 25.606 849.356 25.606H834.573V51.2976ZM891.49 88H885.985C884.625 88 883.946 87.3203 883.946 85.961V19.3869C883.946 18.0276 884.625 17.3479 885.985 17.3479H892.509C894.413 17.3479 895.704 17.9596 896.384 19.183L930.027 73.8288V19.3869C930.027 18.0276 930.707 17.3479 932.067 17.3479H937.572C938.931 17.3479 939.611 18.0276 939.611 19.3869V85.961C939.611 87.3203 938.931 88 937.572 88H930.945C929.11 88 927.819 87.3883 927.071 86.1649L893.529 31.825V85.961C893.529 87.3203 892.849 88 891.49 88ZM962.434 88H956.113C954.754 88 954.074 87.3203 954.074 85.961V19.3869C954.074 18.0276 954.754 17.3479 956.113 17.3479H962.434C963.794 17.3479 964.473 18.0276 964.473 19.3869V85.961C964.473 87.3203 963.794 88 962.434 88ZM986.527 88H981.022C979.663 88 978.983 87.3203 978.983 85.961V19.3869C978.983 18.0276 979.663 17.3479 981.022 17.3479H987.547C989.45 17.3479 990.741 17.9596 991.421 19.183L1025.06 73.8288V19.3869C1025.06 18.0276 1025.74 17.3479 1027.1 17.3479H1032.61C1033.97 17.3479 1034.65 18.0276 1034.65 19.3869V85.961C1034.65 87.3203 1033.97 88 1032.61 88H1025.98C1024.15 88 1022.86 87.3883 1022.11 86.1649L988.566 31.825V85.961C988.566 87.3203 987.887 88 986.527 88ZM1080.72 89.2234C1069.57 89.2234 1061.11 86.1649 1055.33 80.0478C1049.55 73.9308 1046.67 64.9591 1046.67 53.1327C1046.67 41.1705 1049.62 32.0629 1055.53 25.8099C1061.45 19.4889 1070.01 16.3284 1081.23 16.3284C1087.55 16.3284 1093.39 17.4159 1098.76 19.5908C1100.19 20.1346 1100.9 21.1541 1100.9 22.6494V26.2177C1100.9 27.509 1100.43 28.1547 1099.48 28.1547C1099.2 28.1547 1098.86 28.1207 1098.46 28.0528C1098.12 27.9168 1097.47 27.7129 1096.52 27.4411C1091.56 25.8778 1086.83 25.0962 1082.35 25.0962C1073.72 25.0962 1067.4 27.2712 1063.39 31.6211C1059.37 35.903 1057.37 42.6318 1057.37 51.8074V54.0503C1057.37 63.09 1059.44 69.7508 1063.59 74.0327C1067.73 78.3146 1074.12 80.4556 1082.76 80.4556C1084.59 80.4556 1086.43 80.3877 1088.26 80.2517C1090.1 80.0478 1091.86 79.742 1093.56 79.3342V58.6381H1079.8C1078.44 58.6381 1077.76 57.9584 1077.76 56.5991V52.623C1077.76 51.2636 1078.44 50.584 1079.8 50.584H1101.31C1102.67 50.584 1103.35 51.2636 1103.35 52.623V81.5771C1103.35 82.6646 1103.18 83.4802 1102.84 84.0239C1102.57 84.4997 1101.99 84.9415 1101.11 85.3493C1098.32 86.6407 1095.13 87.5922 1091.52 88.2039C1087.99 88.8836 1084.39 89.2234 1080.72 89.2234ZM241.982 188.733C233.01 188.733 226.112 186.354 221.286 181.597C216.528 176.839 214.149 170.042 214.149 161.206V118.387C214.149 117.028 214.829 116.348 216.189 116.348H222.509C223.869 116.348 224.549 117.028 224.549 118.387V162.124C224.549 167.901 226.044 172.319 229.034 175.378C232.093 178.436 236.409 179.965 241.982 179.965C247.623 179.965 251.939 178.436 254.93 175.378C257.92 172.319 259.416 167.901 259.416 162.124V118.387C259.416 117.028 260.095 116.348 261.455 116.348H267.776C269.135 116.348 269.815 117.028 269.815 118.387V161.206C269.815 170.042 267.402 176.839 262.576 181.597C257.751 186.354 250.886 188.733 241.982 188.733ZM291.026 187H285.521C284.161 187 283.482 186.32 283.482 184.961V118.387C283.482 117.028 284.161 116.348 285.521 116.348H292.046C293.949 116.348 295.24 116.96 295.92 118.183L329.564 172.829V118.387C329.564 117.028 330.243 116.348 331.603 116.348H337.108C338.467 116.348 339.147 117.028 339.147 118.387V184.961C339.147 186.32 338.467 187 337.108 187H330.481C328.646 187 327.355 186.388 326.607 185.165L293.065 130.825V184.961C293.065 186.32 292.386 187 291.026 187ZM361.971 187H355.65C354.29 187 353.611 186.32 353.611 184.961V118.387C353.611 117.028 354.29 116.348 355.65 116.348H361.971C363.33 116.348 364.01 117.028 364.01 118.387V184.961C364.01 186.32 363.33 187 361.971 187ZM405.74 187H399.419C398.332 187 397.584 186.83 397.176 186.49C396.769 186.15 396.361 185.403 395.953 184.247L372.3 120.018C372.028 119.271 371.858 118.761 371.791 118.489C371.723 118.217 371.689 117.945 371.689 117.673C371.689 116.79 372.232 116.348 373.32 116.348H379.947C381.034 116.348 381.748 116.518 382.088 116.858C382.495 117.13 382.903 117.877 383.311 119.101L402.784 176.601L422.256 119.101C422.664 117.877 423.038 117.13 423.378 116.858C423.786 116.518 424.533 116.348 425.621 116.348H431.84C432.927 116.348 433.471 116.79 433.471 117.673C433.471 117.945 433.437 118.217 433.369 118.489C433.301 118.761 433.131 119.271 432.859 120.018L409.207 184.247C408.799 185.403 408.391 186.15 407.983 186.49C407.575 186.83 406.828 187 405.74 187ZM482.575 187H442.713C441.353 187 440.674 186.32 440.674 184.961V118.387C440.674 117.028 441.353 116.348 442.713 116.348H482.575C483.935 116.348 484.614 117.028 484.614 118.387V122.669C484.614 124.028 483.935 124.708 482.575 124.708H451.073V146.423H477.172C478.531 146.423 479.211 147.103 479.211 148.463V152.744C479.211 154.104 478.531 154.783 477.172 154.783H451.073V178.64H482.575C483.935 178.64 484.614 179.32 484.614 180.679V184.961C484.614 186.32 483.935 187 482.575 187ZM496.802 187C495.443 187 494.763 186.32 494.763 184.961V118.387C494.763 117.028 495.443 116.348 496.802 116.348H520.557C525.043 116.348 528.951 117.198 532.281 118.897C535.68 120.528 538.33 122.907 540.234 126.033C542.137 129.092 543.088 132.83 543.088 137.248C543.088 142.21 541.729 146.356 539.01 149.686C536.359 153.016 532.859 155.429 528.509 156.924L545.331 183.738C545.875 184.553 546.147 185.233 546.147 185.777C546.147 186.592 545.637 187 544.617 187H538.908C537.821 187 537.005 186.898 536.461 186.694C535.918 186.49 535.476 186.082 535.136 185.471L518.62 158.556H504.857V184.961C504.857 186.32 504.177 187 502.818 187H496.802ZM504.857 150.298H519.232C523.514 150.298 526.81 149.244 529.121 147.137C531.432 144.962 532.587 141.7 532.587 137.35C532.587 128.854 528.271 124.606 519.639 124.606H504.857V150.298ZM572.581 188.733C569.454 188.733 566.26 188.461 562.997 187.918C559.735 187.374 556.812 186.558 554.23 185.471C553.414 185.131 552.87 184.757 552.598 184.349C552.326 183.941 552.19 183.296 552.19 182.412V178.742C552.19 177.451 552.7 176.805 553.72 176.805C553.992 176.805 554.297 176.839 554.637 176.907C554.977 176.975 555.623 177.179 556.574 177.519C559.021 178.266 561.672 178.878 564.527 179.354C567.449 179.761 570.066 179.965 572.377 179.965C577.135 179.965 580.907 178.946 583.693 176.907C586.48 174.8 587.873 171.911 587.873 168.241C587.873 165.726 587.058 163.653 585.427 162.022C583.863 160.323 581.179 158.726 577.372 157.23L567.483 153.458C561.978 151.351 557.934 148.802 555.351 145.812C552.836 142.821 551.579 139.049 551.579 134.495C551.579 130.553 552.564 127.121 554.535 124.198C556.574 121.208 559.361 118.897 562.895 117.265C566.43 115.634 570.542 114.819 575.231 114.819C578.018 114.819 580.873 115.091 583.795 115.634C586.718 116.11 589.471 116.824 592.053 117.775C592.869 118.047 593.413 118.421 593.685 118.897C593.956 119.304 594.092 119.95 594.092 120.834V124.402C594.092 125.693 593.617 126.339 592.665 126.339C592.325 126.339 591.985 126.305 591.646 126.237C591.306 126.169 590.66 125.999 589.708 125.727C584.815 124.3 580.227 123.586 575.945 123.586C571.527 123.586 568.095 124.47 565.648 126.237C563.269 128.004 562.08 130.587 562.08 133.985C562.08 136.636 562.861 138.777 564.425 140.408C565.988 141.972 569.046 143.603 573.6 145.302L582.878 148.768C588.383 150.807 592.325 153.288 594.704 156.211C597.151 159.065 598.374 162.77 598.374 167.323C598.374 171.673 597.321 175.446 595.214 178.64C593.107 181.834 590.116 184.315 586.242 186.082C582.368 187.85 577.814 188.733 572.581 188.733ZM618.083 187H611.762C610.402 187 609.723 186.32 609.723 184.961V118.387C609.723 117.028 610.402 116.348 611.762 116.348H618.083C619.442 116.348 620.122 117.028 620.122 118.387V184.961C620.122 186.32 619.442 187 618.083 187ZM658.488 187H652.167C650.808 187 650.128 186.32 650.128 184.961V124.912H629.636C628.277 124.912 627.597 124.232 627.597 122.873V118.387C627.597 117.028 628.277 116.348 629.636 116.348H681.019C682.379 116.348 683.058 117.028 683.058 118.387V122.873C683.058 124.232 682.379 124.912 681.019 124.912H660.527V184.961C660.527 186.32 659.847 187 658.488 187ZM717.084 187H710.967C709.608 187 708.928 186.32 708.928 184.961V161.002L686.703 120.12C686.227 119.304 685.921 118.727 685.785 118.387C685.649 118.047 685.582 117.741 685.582 117.469C685.582 116.722 686.091 116.348 687.111 116.348H694.451C695.199 116.348 695.743 116.45 696.082 116.654C696.422 116.858 696.728 117.265 697 117.877L714.23 152.541L731.765 117.877C732.105 117.265 732.411 116.858 732.683 116.654C733.023 116.45 733.566 116.348 734.314 116.348H741.349C742.368 116.348 742.878 116.722 742.878 117.469C742.878 117.741 742.81 118.047 742.674 118.387C742.538 118.727 742.232 119.304 741.757 120.12L719.123 161.206V184.961C719.123 186.32 718.444 187 717.084 187Z" fill="#1F0024"/>
</svg>
