<svg width="868" height="773" viewBox="0 0 868 773" fill="none" xmlns="http://www.w3.org/2000/svg">
<path d="M16.4568 16.457H850.733" stroke="#1F0024" stroke-width="32.9137" stroke-linecap="round"/>
<path d="M185.755 389.952L686.67 389.952" stroke="#1F0024" stroke-width="32.9137" stroke-linecap="round"/>
<path d="M185.755 119.422L686.67 119.422" stroke="#1F0024" stroke-width="32.9137" stroke-linecap="round"/>
<path d="M311.417 622.094L561.002 622.094" stroke="#1F0024" stroke-width="32.9137" stroke-linecap="round"/>
<path d="M686.673 16.457L686.673 386.471" stroke="#1F0024" stroke-width="32.9137" stroke-linecap="round"/>
<path d="M185.755 19.9673L185.755 389.981" stroke="#1F0024" stroke-width="32.9137" stroke-linecap="round"/>
<path d="M93.2681 30.4316L93.2681 156.097" stroke="#1F0024" stroke-width="32.9137" stroke-linecap="round"/>
<path d="M248.594 444.058L248.594 574.959" stroke="#1F0024" stroke-width="32.9137" stroke-linecap="round"/>
<path d="M311.417 410.894L311.417 622.081" stroke="#1F0024" stroke-width="32.9137" stroke-linecap="round"/>
<path d="M561.01 409.144L561.01 620.331" stroke="#1F0024" stroke-width="32.9137" stroke-linecap="round"/>
<path d="M623.834 444.058L623.834 574.959" stroke="#1F0024" stroke-width="32.9137" stroke-linecap="round"/>
<path d="M491.183 625.583L491.183 756.485" stroke="#1F0024" stroke-width="32.9137" stroke-linecap="round"/>
<path d="M381.247 625.583L381.247 756.485" stroke="#1F0024" stroke-width="32.9137" stroke-linecap="round"/>
<rect x="302.695" y="215.428" width="76.7953" height="76.7953" rx="38.3977" fill="#1F0024"/>
<rect x="491.183" y="215.428" width="76.7953" height="76.7953" rx="38.3977" fill="#1F0024"/>
</svg>
